<svg width="210" height="76" viewBox="0 0 210 76" fill="none" xmlns="http://www.w3.org/2000/svg">
<g filter="url(#filter0_d_1097_27268)">
<rect x="5" y="3" width="200" height="66" rx="6" fill="white" shape-rendering="crispEdges"/>
<rect x="5.5" y="3.5" width="199" height="65" rx="5.5" stroke="#E2E4E9" shape-rendering="crispEdges"/>
<path d="M7 9C7 6.79086 8.79086 5 11 5H199C201.209 5 203 6.79086 203 9V31H7V9Z" fill="white"/>
<path d="M7 9C7 6.79086 8.79086 5 11 5H199C201.209 5 203 6.79086 203 9V31H7V9Z" fill="#2B9E97"/>
<path d="M75.383 12.314L76.553 12.613C76.423 13.237 76.28 13.809 76.124 14.329H81.077C81.077 18.801 81.012 21.557 80.882 22.597C80.726 23.715 79.998 24.274 78.685 24.274C78.503 24.274 78.178 24.248 77.71 24.222L77.424 23.117C77.84 23.156 78.191 23.182 78.503 23.182C79.218 23.182 79.634 22.805 79.738 22.051C79.816 21.401 79.868 19.23 79.894 15.525H79.309C79.023 17.631 78.646 19.308 78.152 20.543C77.554 21.921 76.657 23.143 75.487 24.235L74.72 23.26C75.786 22.298 76.579 21.219 77.125 20.023C77.593 18.892 77.957 17.397 78.191 15.525H77.437C76.904 18.307 75.929 20.335 74.499 21.609L73.706 20.686C74.98 19.594 75.864 17.878 76.345 15.525H75.695C75.357 16.305 74.98 16.968 74.551 17.488L73.641 16.721C74.46 15.694 75.045 14.225 75.383 12.314ZM70.911 16.149C70.807 16.773 70.664 17.371 70.508 17.956L69.429 17.657C69.819 16.279 70.04 14.836 70.092 13.328L71.184 13.406C71.158 13.926 71.119 14.446 71.067 14.953H71.743V12.353H72.939V14.953H73.888V16.149H72.939V18.892C73.251 18.749 73.55 18.606 73.836 18.463V19.633C73.537 19.776 73.238 19.919 72.939 20.049V24.339H71.743V20.53C71.132 20.764 70.508 20.972 69.871 21.167L69.585 19.971C70.313 19.815 71.041 19.62 71.743 19.373V16.149H70.911ZM84.808 12.782H92.192V17.319H84.808V12.782ZM90.957 16.149V13.952H86.043V16.149H90.957ZM87.876 18.294V24.144H86.68V23.52H84.275V24.144H83.066V18.294H87.876ZM84.275 22.363H86.68V19.464H84.275V22.363ZM93.934 18.294V24.144H92.699V23.52H90.19V24.144H88.981V18.294H93.934ZM90.19 22.363H92.699V19.464H90.19V22.363ZM98.081 15.33H99.069C98.939 15.031 98.796 14.745 98.614 14.485L99.524 14.147C99.719 14.485 99.901 14.875 100.07 15.33H100.772C100.876 14.914 100.954 14.485 101.019 14.043L102.124 14.186C102.059 14.576 101.981 14.966 101.89 15.33H102.787C102.995 14.94 103.138 14.55 103.242 14.147L104.217 14.381C104.139 14.706 104.009 15.018 103.853 15.33H104.919V16.266H101.604C101.513 16.5 101.422 16.721 101.331 16.929H105.231V17.865H103.736C104.178 18.489 104.854 19.035 105.764 19.529V13.77H97.236V22.857H105.764V19.555L105.114 20.374C104.412 19.893 103.84 19.386 103.398 18.853V19.958C103.398 20.504 103.047 20.803 102.358 20.829C101.968 20.829 101.604 20.816 101.253 20.79L101.032 19.984C101.37 20.01 101.669 20.036 101.929 20.036C102.215 20.036 102.358 19.906 102.358 19.659V19.269H100.382V21.154C100.382 21.336 100.499 21.44 100.746 21.44H102.592C103.034 21.44 103.32 21.375 103.437 21.271C103.541 21.128 103.619 20.855 103.684 20.465L104.672 20.777C104.568 21.518 104.399 21.96 104.178 22.103C103.957 22.246 103.528 22.324 102.904 22.324H100.278C99.628 22.324 99.303 22.038 99.303 21.492V19.607C98.887 19.958 98.432 20.27 97.938 20.53L97.366 19.633C98.263 19.191 99.004 18.606 99.576 17.865H97.756V16.929H100.161C100.265 16.721 100.369 16.5 100.46 16.266H98.081V15.33ZM100.382 18.489H103.125C102.969 18.281 102.839 18.073 102.735 17.865H100.824C100.681 18.073 100.538 18.281 100.382 18.489ZM97.236 23.884V24.352H96.066V12.769H106.934V24.352H105.764V23.884H97.236ZM110.652 16.097H118.374V17.267H115.176V19.217H118.92V20.387H115.176V22.779C116.06 22.909 117.139 22.974 118.439 22.987C119.089 22.987 119.765 22.948 120.441 22.896L120.207 24.118H118.985C116.255 24.118 114.292 23.871 113.122 23.377C112.29 22.987 111.614 22.415 111.094 21.661C110.6 22.701 109.989 23.585 109.261 24.313L108.455 23.325C109.677 22.051 110.509 20.335 110.925 18.203L112.121 18.411C111.965 19.165 111.77 19.88 111.549 20.53C112.16 21.544 112.927 22.207 113.837 22.493L113.954 22.519V17.267H110.652V16.097ZM119.947 13.562V16.513H118.738V14.706H110.262V16.578H109.053V13.562H113.941C113.759 13.146 113.551 12.769 113.343 12.431L114.669 12.223C114.851 12.626 115.033 13.068 115.202 13.562H119.947ZM129.229 13.536C130.321 13.536 131.166 13.991 131.764 14.914C132.31 15.772 132.583 16.916 132.583 18.359C132.583 19.789 132.31 20.946 131.764 21.804C131.166 22.714 130.321 23.182 129.229 23.182C128.137 23.182 127.292 22.714 126.694 21.804C126.148 20.946 125.875 19.802 125.875 18.359C125.875 16.903 126.148 15.759 126.694 14.914C127.292 13.991 128.137 13.536 129.229 13.536ZM129.229 14.732C128.462 14.732 127.929 15.148 127.617 15.993C127.383 16.565 127.279 17.358 127.279 18.359C127.279 19.347 127.383 20.14 127.617 20.725C127.929 21.557 128.462 21.986 129.229 21.986C129.983 21.986 130.529 21.557 130.841 20.725C131.062 20.14 131.179 19.347 131.179 18.359C131.179 17.358 131.062 16.565 130.841 15.993C130.529 15.148 129.983 14.732 129.229 14.732ZM137.167 13.536C138.051 13.536 138.792 13.783 139.364 14.303C139.923 14.823 140.209 15.486 140.209 16.305C140.209 17.111 139.897 17.839 139.299 18.502C138.935 18.879 138.298 19.373 137.375 19.997C136.374 20.66 135.776 21.245 135.581 21.752H140.222V23H133.826C133.826 22.077 134.125 21.271 134.749 20.569C135.087 20.166 135.789 19.607 136.842 18.879C137.466 18.437 137.908 18.086 138.168 17.813C138.584 17.345 138.805 16.838 138.805 16.292C138.805 15.772 138.662 15.382 138.376 15.122C138.09 14.862 137.661 14.732 137.115 14.732C136.53 14.732 136.088 14.927 135.789 15.33C135.477 15.72 135.321 16.279 135.295 17.033H133.878C133.891 15.993 134.19 15.161 134.775 14.537C135.373 13.861 136.179 13.536 137.167 13.536Z" fill="white"/>
<path d="M7 31H203V63C203 65.2091 201.209 67 199 67H11C8.79086 67 7 65.2091 7 63V31Z" fill="white"/>
<path d="M54.024 43.184L54.84 43.4C54.708 44.024 54.564 44.6 54.396 45.128H59.052C59.052 49.136 58.992 51.608 58.872 52.544C58.74 53.6 58.092 54.128 56.928 54.128C56.76 54.128 56.46 54.116 56.028 54.092L55.824 53.312C56.208 53.336 56.532 53.36 56.808 53.36C57.54 53.36 57.96 52.976 58.068 52.208C58.152 51.536 58.2 49.448 58.224 45.968H57.408C57.144 47.972 56.784 49.556 56.316 50.72C55.764 51.968 54.948 53.096 53.856 54.092L53.328 53.408C54.336 52.496 55.08 51.488 55.584 50.384C56.052 49.268 56.4 47.792 56.628 45.968H55.692C55.212 48.584 54.3 50.48 52.956 51.668L52.392 51.02C53.628 49.964 54.468 48.272 54.924 45.968H54.096C53.772 46.736 53.412 47.36 53.004 47.864L52.368 47.324C53.136 46.364 53.688 44.984 54.024 43.184ZM49.68 46.544C49.548 47.144 49.392 47.732 49.2 48.296L48.444 48.08C48.9 46.808 49.152 45.476 49.212 44.072L49.968 44.132C49.944 44.66 49.896 45.188 49.824 45.704H50.664V43.208H51.504V45.704H52.512V46.544H51.504V49.424C51.84 49.268 52.152 49.112 52.464 48.944V49.76C52.152 49.928 51.828 50.084 51.504 50.24V54.2H50.664V50.6C50.052 50.84 49.428 51.068 48.78 51.272L48.576 50.432C49.296 50.264 49.992 50.048 50.664 49.784V46.544H49.68ZM61.476 44.192C61.716 44.912 61.944 45.74 62.136 46.676L61.464 46.868C61.272 46.016 61.044 45.2 60.756 44.42L61.476 44.192ZM64.74 44.036L65.472 44.132C65.4 45.116 65.208 45.992 64.908 46.76L64.248 46.544C64.512 45.824 64.668 44.984 64.74 44.036ZM60.648 47.408H62.796V43.244H63.672V47.408H65.46V48.248H63.672V48.56C64.272 49.1 64.872 49.712 65.484 50.384L64.968 51.14C64.464 50.384 64.032 49.772 63.672 49.316V54.164H62.796V49.328C62.268 50.456 61.608 51.452 60.828 52.304L60.48 51.416C61.524 50.408 62.28 49.352 62.748 48.248H60.648V47.408ZM69.252 43.256H70.104V50.06L71.424 49.856L71.568 50.72L70.104 50.936V54.164H69.252V51.068L65.784 51.596L65.664 50.732L69.252 50.192V43.256ZM66.828 44.108C67.62 44.708 68.28 45.296 68.82 45.872L68.232 46.46C67.752 45.896 67.092 45.296 66.252 44.66L66.828 44.108ZM66.54 46.916C67.308 47.528 67.968 48.14 68.496 48.74L67.908 49.34C67.428 48.752 66.78 48.128 65.964 47.468L66.54 46.916ZM74.292 43.232H75.144V45.5H76.536V46.328H75.144V47.252C75.732 47.852 76.32 48.524 76.908 49.256L76.416 49.988C75.924 49.232 75.504 48.632 75.144 48.176V54.188H74.292V48.212C73.908 49.34 73.416 50.372 72.816 51.308L72.444 50.372C73.308 49.196 73.92 47.84 74.292 46.328H72.828V45.5H74.292V43.232ZM77.832 48.656L78.624 48.836C78.24 50.516 77.676 51.956 76.956 53.18L76.212 52.7C76.956 51.488 77.496 50.144 77.832 48.656ZM82.176 48.596C82.68 49.952 83.112 51.404 83.472 52.94L82.692 53.288C82.296 51.62 81.864 50.144 81.396 48.848L82.176 48.596ZM79.488 54.068H78.264L78.096 53.264C78.48 53.288 78.84 53.312 79.188 53.312C79.512 53.312 79.68 53.132 79.68 52.784V47.66H76.752V46.832H83.484V47.66H80.544V53C80.544 53.708 80.184 54.068 79.488 54.068ZM77.388 43.916H82.86V44.732H77.388V43.916ZM92.808 50.072L93.648 50.3C93.336 51.296 92.952 52.196 92.496 52.988H95.076V53.792H84.948V52.988H91.572C92.04 52.172 92.448 51.2 92.808 50.072ZM87.072 50.216C87.42 50.864 87.732 51.62 88.008 52.46L87.228 52.664C86.988 51.896 86.676 51.164 86.292 50.468L87.072 50.216ZM89.844 49.976C90.12 50.672 90.372 51.464 90.588 52.364L89.82 52.568C89.616 51.752 89.364 50.972 89.052 50.228L89.844 49.976ZM86.892 48.824H93.12V49.592H86.892V48.824ZM86.412 44.996C86.1 45.596 85.752 46.148 85.356 46.652L84.612 46.184C85.356 45.272 85.896 44.264 86.232 43.16L87.072 43.34C86.976 43.652 86.868 43.94 86.76 44.228H89.916V44.996H88.188C88.38 45.416 88.548 45.812 88.668 46.172L87.876 46.46C87.72 45.956 87.54 45.464 87.324 44.996H86.412ZM91.464 44.996C91.248 45.416 91.02 45.812 90.768 46.172L90.036 45.704C90.6 44.936 91.008 44.096 91.26 43.16L92.088 43.34C91.992 43.652 91.896 43.94 91.8 44.228H95.304V44.996H93.396C93.66 45.452 93.864 45.872 94.02 46.28L93.228 46.568C93.012 46.028 92.772 45.5 92.508 44.996H91.464ZM89.724 46.184H90.276C91.764 47.276 93.492 48.14 95.448 48.764L95.028 49.508C93.06 48.836 91.392 47.972 90 46.892C88.728 47.9 87.048 48.764 84.96 49.496L84.552 48.752C86.616 48.056 88.344 47.204 89.724 46.184ZM100.704 43.16H101.556L97.308 54.2H96.444L100.704 43.16ZM106.944 51.8V52.616C105.72 53.06 104.34 53.42 102.78 53.708L102.672 52.868C104.304 52.604 105.72 52.244 106.944 51.8ZM104.724 43.16L105.528 43.472C104.916 45.032 104.292 46.28 103.668 47.216C104.232 47.144 104.796 47.06 105.372 46.964C105.6 46.532 105.84 46.088 106.08 45.632L106.836 45.908C105.744 47.936 104.832 49.376 104.1 50.24C105.012 50.06 105.912 49.82 106.8 49.52V50.288C105.504 50.732 104.256 51.032 103.056 51.188L102.828 50.408C102.984 50.336 103.116 50.252 103.224 50.156C103.68 49.688 104.244 48.896 104.916 47.768C104.232 47.876 103.548 47.972 102.852 48.068L102.636 47.276C102.768 47.216 102.888 47.108 102.996 46.952C103.668 45.848 104.244 44.588 104.724 43.16ZM106.8 44.684H109.668V43.232H110.544V44.684H113.4V45.524H110.544V47.3H113.052V48.14H107.196V47.3H109.668V45.524H106.8V44.684ZM112.704 49.34V54.164H111.864V53.588H108.432V54.164H107.58V49.34H112.704ZM108.432 52.772H111.864V50.156H108.432V52.772ZM120.3 43.184L121.152 43.292C121.056 43.868 120.936 44.42 120.792 44.948H125.004C125.004 49.1 124.932 51.668 124.812 52.628C124.668 53.6 124.104 54.092 123.108 54.092C122.856 54.092 122.424 54.08 121.812 54.056L121.62 53.276C122.148 53.3 122.592 53.324 122.976 53.324C123.552 53.324 123.9 53 124.008 52.376C124.116 51.68 124.176 49.472 124.188 45.752H120.54C120.204 46.676 119.796 47.504 119.316 48.224L118.764 47.504C119.508 46.328 120.024 44.888 120.3 43.184ZM119.316 51.608L119.16 50.9C119.496 50.72 120.084 49.436 120.936 47.036L121.692 47.312C121.104 48.908 120.636 50.024 120.288 50.66C121.008 50.516 121.668 50.372 122.244 50.228C122.076 49.724 121.896 49.268 121.728 48.86L122.448 48.608C122.856 49.544 123.216 50.552 123.528 51.62L122.772 51.956C122.664 51.572 122.556 51.212 122.46 50.876C121.548 51.128 120.492 51.368 119.316 51.608ZM117.276 48.08V54.152H116.424V48.044C116.016 49.268 115.488 50.372 114.816 51.368L114.444 50.432C115.344 49.244 115.98 47.888 116.364 46.376H114.684V45.548H116.424V43.208H117.276V45.548H118.752V46.376H117.276V47.132C117.828 47.708 118.392 48.344 118.968 49.052L118.488 49.784C118.02 49.088 117.612 48.512 117.276 48.08ZM126.888 45.512L127.572 45.56C127.548 46.76 127.404 47.912 127.164 48.992L126.456 48.788C126.708 47.756 126.852 46.664 126.888 45.512ZM129.9 45.26C130.164 45.848 130.392 46.52 130.596 47.288C131.004 46.244 131.244 45.128 131.304 43.94L132.084 44.048C132.06 44.552 132.012 45.032 131.94 45.488H133.656V43.244H134.544V45.488H137.16V46.316H134.544V49.22H136.98V50.072H134.544V53H137.472V53.84H130.224V53H133.656V50.072H130.908V49.22H133.656V46.316H131.784C131.568 47.192 131.244 48.008 130.824 48.752L130.188 48.176C130.32 47.912 130.44 47.66 130.548 47.42L129.948 47.576C129.768 46.844 129.54 46.136 129.264 45.464L129.9 45.26ZM128.184 43.232H129.06V54.152H128.184V43.232ZM138.924 44.42H142.188C142.344 44 142.488 43.58 142.608 43.148L143.484 43.256C143.364 43.652 143.244 44.036 143.112 44.42H149.256V45.26H142.788C142.344 46.292 141.792 47.24 141.144 48.104V54.212H140.304V49.136C139.896 49.58 139.476 50 139.02 50.408L138.48 49.724C139.944 48.44 141.06 46.952 141.84 45.26H138.924V44.42ZM142.08 50H145.56V48.884C146.244 48.5 146.892 48.056 147.516 47.528H143.004V46.724H148.62V47.528C147.972 48.128 147.24 48.704 146.424 49.244V50H149.424V50.828H146.424V53.096C146.424 53.804 146.064 54.164 145.356 54.164H143.856L143.628 53.348C144.06 53.36 144.516 53.372 145.008 53.372C145.368 53.372 145.56 53.18 145.56 52.82V50.828H142.08V50ZM150.588 44.288H153.132V43.196H153.948V44.288H156.156V45.056H153.948V46.112H155.88V46.856H151.008V46.112H153.132V45.056H150.588V44.288ZM151.404 47.804H155.508V48.56H151.404V47.804ZM150.672 49.472H156.288V50.228H153.936V53.228C153.936 53.852 153.6 54.176 152.928 54.176H151.908L151.74 53.396C152.052 53.432 152.364 53.456 152.652 53.456C152.964 53.456 153.12 53.312 153.12 53.036V50.228H150.672V49.472ZM151.572 50.804L152.268 50.936C152.004 51.872 151.632 52.676 151.152 53.36L150.504 52.94C150.996 52.292 151.356 51.584 151.572 50.804ZM155.316 50.708C155.604 51.26 155.868 51.848 156.096 52.484L155.424 52.784C155.184 52.088 154.908 51.464 154.62 50.936L155.316 50.708ZM157.356 43.232L158.148 43.364C158.076 43.988 157.98 44.552 157.872 45.08H161.04V45.608C160.884 46.628 160.68 47.636 160.416 48.632L159.612 48.404C159.852 47.66 160.056 46.82 160.212 45.86H157.68C157.404 46.868 157.044 47.684 156.6 48.308L155.94 47.84C156.672 46.736 157.14 45.2 157.356 43.232ZM158.16 46.808H158.952C158.952 47.612 158.904 48.356 158.832 49.028C159.36 50.924 160.26 52.436 161.532 53.552L160.956 54.212C159.924 53.204 159.132 51.98 158.58 50.516C158.556 50.6 158.544 50.684 158.52 50.78C158.148 52.196 157.308 53.348 155.988 54.26L155.46 53.624C156.6 52.832 157.356 51.848 157.728 50.648C158.016 49.64 158.16 48.368 158.16 46.808Z" fill="#272B35"/>
</g>
<defs>
<filter id="filter0_d_1097_27268" x="0" y="0" width="210" height="76" filterUnits="userSpaceOnUse" color-interpolation-filters="sRGB">
<feFlood flood-opacity="0" result="BackgroundImageFix"/>
<feColorMatrix in="SourceAlpha" type="matrix" values="0 0 0 0 0 0 0 0 0 0 0 0 0 0 0 0 0 0 127 0" result="hardAlpha"/>
<feOffset dy="2"/>
<feGaussianBlur stdDeviation="2.5"/>
<feComposite in2="hardAlpha" operator="out"/>
<feColorMatrix type="matrix" values="0 0 0 0 0.0588235 0 0 0 0 0.0588235 0 0 0 0 0.0588235 0 0 0 0.1 0"/>
<feBlend mode="normal" in2="BackgroundImageFix" result="effect1_dropShadow_1097_27268"/>
<feBlend mode="normal" in="SourceGraphic" in2="effect1_dropShadow_1097_27268" result="shape"/>
</filter>
</defs>
</svg>
